<mxfile host="app.diagrams.net" modified="2024-02-06T17:30:53.723Z" agent="Mozilla/5.0 (Windows NT 10.0; Win64; x64) AppleWebKit/537.36 (KHTML, like Gecko) Chrome/121.0.0.0 Safari/537.36" etag="_DogVODhxWvqaAvLm02k" version="23.1.1" type="device">
  <diagram name="Página-1" id="vLyzbcs6eWX3FTS7ow10">
    <mxGraphModel dx="568" dy="682" grid="1" gridSize="10" guides="1" tooltips="1" connect="1" arrows="1" fold="1" page="1" pageScale="1" pageWidth="827" pageHeight="1169" math="0" shadow="0">
      <root>
        <mxCell id="0" />
        <mxCell id="1" parent="0" />
        <mxCell id="_f90sHQq_CAg2VSXKp69-1" value="PERFIL" style="swimlane;fontStyle=0;childLayout=stackLayout;horizontal=1;startSize=26;horizontalStack=0;resizeParent=1;resizeParentMax=0;resizeLast=0;collapsible=1;marginBottom=0;align=center;fontSize=14;fillColor=default;fillStyle=solid;" parent="1" vertex="1">
          <mxGeometry x="110" y="160" width="160" height="116" as="geometry" />
        </mxCell>
        <mxCell id="_f90sHQq_CAg2VSXKp69-3" value="#ID_perfil" style="text;strokeColor=none;fillColor=none;spacingLeft=4;spacingRight=4;overflow=hidden;rotatable=0;points=[[0,0.5],[1,0.5]];portConstraint=eastwest;fontSize=12;whiteSpace=wrap;html=1;" parent="_f90sHQq_CAg2VSXKp69-1" vertex="1">
          <mxGeometry y="26" width="160" height="30" as="geometry" />
        </mxCell>
        <mxCell id="_f90sHQq_CAg2VSXKp69-2" value="Usuario" style="text;strokeColor=none;fillColor=none;spacingLeft=4;spacingRight=4;overflow=hidden;rotatable=0;points=[[0,0.5],[1,0.5]];portConstraint=eastwest;fontSize=12;whiteSpace=wrap;html=1;" parent="_f90sHQq_CAg2VSXKp69-1" vertex="1">
          <mxGeometry y="56" width="160" height="30" as="geometry" />
        </mxCell>
        <mxCell id="pjNiDbdo3uzKNzegbZ7r-31" value="Contraseña" style="text;strokeColor=none;fillColor=none;spacingLeft=4;spacingRight=4;overflow=hidden;rotatable=0;points=[[0,0.5],[1,0.5]];portConstraint=eastwest;fontSize=12;whiteSpace=wrap;html=1;" vertex="1" parent="_f90sHQq_CAg2VSXKp69-1">
          <mxGeometry y="86" width="160" height="30" as="geometry" />
        </mxCell>
        <mxCell id="_f90sHQq_CAg2VSXKp69-5" value="CUENTA" style="swimlane;fontStyle=0;childLayout=stackLayout;horizontal=1;startSize=26;horizontalStack=0;resizeParent=1;resizeParentMax=0;resizeLast=0;collapsible=1;marginBottom=0;align=center;fontSize=14;" parent="1" vertex="1">
          <mxGeometry x="410" y="160" width="160" height="116" as="geometry" />
        </mxCell>
        <mxCell id="_f90sHQq_CAg2VSXKp69-6" value="#ID_cuenta" style="text;strokeColor=none;fillColor=none;spacingLeft=4;spacingRight=4;overflow=hidden;rotatable=0;points=[[0,0.5],[1,0.5]];portConstraint=eastwest;fontSize=12;whiteSpace=wrap;html=1;" parent="_f90sHQq_CAg2VSXKp69-5" vertex="1">
          <mxGeometry y="26" width="160" height="30" as="geometry" />
        </mxCell>
        <mxCell id="_f90sHQq_CAg2VSXKp69-8" value="Saldo" style="text;strokeColor=none;fillColor=none;spacingLeft=4;spacingRight=4;overflow=hidden;rotatable=0;points=[[0,0.5],[1,0.5]];portConstraint=eastwest;fontSize=12;whiteSpace=wrap;html=1;" parent="_f90sHQq_CAg2VSXKp69-5" vertex="1">
          <mxGeometry y="56" width="160" height="30" as="geometry" />
        </mxCell>
        <mxCell id="pjNiDbdo3uzKNzegbZ7r-2" value="" style="endArrow=none;html=1;rounded=0;entryX=0;entryY=0.393;entryDx=0;entryDy=0;entryPerimeter=0;exitX=0.003;exitY=0.26;exitDx=0;exitDy=0;exitPerimeter=0;" edge="1" parent="_f90sHQq_CAg2VSXKp69-5" source="_f90sHQq_CAg2VSXKp69-8" target="_f90sHQq_CAg2VSXKp69-6">
          <mxGeometry width="50" height="50" relative="1" as="geometry">
            <mxPoint x="-90" y="100" as="sourcePoint" />
            <mxPoint x="-40" y="50" as="targetPoint" />
            <Array as="points">
              <mxPoint x="-30" y="50" />
            </Array>
          </mxGeometry>
        </mxCell>
        <mxCell id="pjNiDbdo3uzKNzegbZ7r-9" value="" style="endArrow=none;html=1;rounded=0;exitX=1;exitY=0.5;exitDx=0;exitDy=0;entryX=0.996;entryY=0.304;entryDx=0;entryDy=0;entryPerimeter=0;" edge="1" parent="_f90sHQq_CAg2VSXKp69-5" source="_f90sHQq_CAg2VSXKp69-8" target="_f90sHQq_CAg2VSXKp69-6">
          <mxGeometry width="50" height="50" relative="1" as="geometry">
            <mxPoint x="180" y="70" as="sourcePoint" />
            <mxPoint x="230" y="20" as="targetPoint" />
            <Array as="points">
              <mxPoint x="200" y="50" />
            </Array>
          </mxGeometry>
        </mxCell>
        <mxCell id="pjNiDbdo3uzKNzegbZ7r-29" value="Nombre" style="text;strokeColor=none;fillColor=none;spacingLeft=4;spacingRight=4;overflow=hidden;rotatable=0;points=[[0,0.5],[1,0.5]];portConstraint=eastwest;fontSize=12;whiteSpace=wrap;html=1;" vertex="1" parent="_f90sHQq_CAg2VSXKp69-5">
          <mxGeometry y="86" width="160" height="30" as="geometry" />
        </mxCell>
        <mxCell id="_f90sHQq_CAg2VSXKp69-9" value="PRESUPUESTO" style="swimlane;fontStyle=0;childLayout=stackLayout;horizontal=1;startSize=26;horizontalStack=0;resizeParent=1;resizeParentMax=0;resizeLast=0;collapsible=1;marginBottom=0;align=center;fontSize=14;" parent="1" vertex="1">
          <mxGeometry x="110" y="380" width="160" height="176" as="geometry" />
        </mxCell>
        <mxCell id="_f90sHQq_CAg2VSXKp69-10" value="#ID_presupuesto" style="text;strokeColor=none;fillColor=none;spacingLeft=4;spacingRight=4;overflow=hidden;rotatable=0;points=[[0,0.5],[1,0.5]];portConstraint=eastwest;fontSize=12;whiteSpace=wrap;html=1;" parent="_f90sHQq_CAg2VSXKp69-9" vertex="1">
          <mxGeometry y="26" width="160" height="30" as="geometry" />
        </mxCell>
        <mxCell id="_f90sHQq_CAg2VSXKp69-11" value="Nombre_presupuesto" style="text;strokeColor=none;fillColor=none;spacingLeft=4;spacingRight=4;overflow=hidden;rotatable=0;points=[[0,0.5],[1,0.5]];portConstraint=eastwest;fontSize=12;whiteSpace=wrap;html=1;" parent="_f90sHQq_CAg2VSXKp69-9" vertex="1">
          <mxGeometry y="56" width="160" height="30" as="geometry" />
        </mxCell>
        <mxCell id="_f90sHQq_CAg2VSXKp69-39" value="Perioricidad" style="text;strokeColor=none;fillColor=none;spacingLeft=4;spacingRight=4;overflow=hidden;rotatable=0;points=[[0,0.5],[1,0.5]];portConstraint=eastwest;fontSize=12;whiteSpace=wrap;html=1;" parent="_f90sHQq_CAg2VSXKp69-9" vertex="1">
          <mxGeometry y="86" width="160" height="30" as="geometry" />
        </mxCell>
        <mxCell id="pjNiDbdo3uzKNzegbZ7r-28" value="Saldo" style="text;strokeColor=none;fillColor=none;spacingLeft=4;spacingRight=4;overflow=hidden;rotatable=0;points=[[0,0.5],[1,0.5]];portConstraint=eastwest;fontSize=12;whiteSpace=wrap;html=1;" vertex="1" parent="_f90sHQq_CAg2VSXKp69-9">
          <mxGeometry y="116" width="160" height="30" as="geometry" />
        </mxCell>
        <mxCell id="pjNiDbdo3uzKNzegbZ7r-34" value="Fecha" style="text;strokeColor=none;fillColor=none;spacingLeft=4;spacingRight=4;overflow=hidden;rotatable=0;points=[[0,0.5],[1,0.5]];portConstraint=eastwest;fontSize=12;whiteSpace=wrap;html=1;" vertex="1" parent="_f90sHQq_CAg2VSXKp69-9">
          <mxGeometry y="146" width="160" height="30" as="geometry" />
        </mxCell>
        <mxCell id="_f90sHQq_CAg2VSXKp69-16" value="TRANSACCION" style="swimlane;fontStyle=0;childLayout=stackLayout;horizontal=1;startSize=26;horizontalStack=0;resizeParent=1;resizeParentMax=0;resizeLast=0;collapsible=1;marginBottom=0;align=center;fontSize=14;fillColor=default;fillStyle=solid;" parent="1" vertex="1">
          <mxGeometry x="380" y="450" width="200" height="146" as="geometry" />
        </mxCell>
        <mxCell id="_f90sHQq_CAg2VSXKp69-17" value="#ID_transaccion" style="text;strokeColor=none;fillColor=none;spacingLeft=4;spacingRight=4;overflow=hidden;rotatable=0;points=[[0,0.5],[1,0.5]];portConstraint=eastwest;fontSize=12;whiteSpace=wrap;html=1;" parent="_f90sHQq_CAg2VSXKp69-16" vertex="1">
          <mxGeometry y="26" width="200" height="30" as="geometry" />
        </mxCell>
        <mxCell id="_f90sHQq_CAg2VSXKp69-19" value="Monto" style="text;strokeColor=none;fillColor=none;spacingLeft=4;spacingRight=4;overflow=hidden;rotatable=0;points=[[0,0.5],[1,0.5]];portConstraint=eastwest;fontSize=12;whiteSpace=wrap;html=1;" parent="_f90sHQq_CAg2VSXKp69-16" vertex="1">
          <mxGeometry y="56" width="200" height="30" as="geometry" />
        </mxCell>
        <mxCell id="_f90sHQq_CAg2VSXKp69-40" value="Fecha" style="text;strokeColor=none;fillColor=none;spacingLeft=4;spacingRight=4;overflow=hidden;rotatable=0;points=[[0,0.5],[1,0.5]];portConstraint=eastwest;fontSize=12;whiteSpace=wrap;html=1;" parent="_f90sHQq_CAg2VSXKp69-16" vertex="1">
          <mxGeometry y="86" width="200" height="30" as="geometry" />
        </mxCell>
        <mxCell id="pjNiDbdo3uzKNzegbZ7r-17" value="" style="endArrow=none;html=1;rounded=0;exitX=1.001;exitY=0.31;exitDx=0;exitDy=0;exitPerimeter=0;entryX=0.997;entryY=0.259;entryDx=0;entryDy=0;entryPerimeter=0;" edge="1" parent="_f90sHQq_CAg2VSXKp69-16" source="_f90sHQq_CAg2VSXKp69-40" target="_f90sHQq_CAg2VSXKp69-19">
          <mxGeometry width="50" height="50" relative="1" as="geometry">
            <mxPoint x="220" y="70" as="sourcePoint" />
            <mxPoint x="270" y="20" as="targetPoint" />
            <Array as="points">
              <mxPoint x="220" y="80" />
            </Array>
          </mxGeometry>
        </mxCell>
        <mxCell id="pjNiDbdo3uzKNzegbZ7r-30" value="Tipo(gasto/ingreso/movimiento)" style="text;strokeColor=none;fillColor=none;spacingLeft=4;spacingRight=4;overflow=hidden;rotatable=0;points=[[0,0.5],[1,0.5]];portConstraint=eastwest;fontSize=12;whiteSpace=wrap;html=1;" vertex="1" parent="_f90sHQq_CAg2VSXKp69-16">
          <mxGeometry y="116" width="200" height="30" as="geometry" />
        </mxCell>
        <mxCell id="_f90sHQq_CAg2VSXKp69-20" value="CATEGORIA" style="swimlane;fontStyle=0;childLayout=stackLayout;horizontal=1;startSize=26;horizontalStack=0;resizeParent=1;resizeParentMax=0;resizeLast=0;collapsible=1;marginBottom=0;align=center;fontSize=14;fillColor=default;fillStyle=solid;" parent="1" vertex="1">
          <mxGeometry x="680" y="450" width="130" height="86" as="geometry" />
        </mxCell>
        <mxCell id="_f90sHQq_CAg2VSXKp69-21" value="#ID_categoria" style="text;strokeColor=none;fillColor=none;spacingLeft=4;spacingRight=4;overflow=hidden;rotatable=0;points=[[0,0.5],[1,0.5]];portConstraint=eastwest;fontSize=12;whiteSpace=wrap;html=1;" parent="_f90sHQq_CAg2VSXKp69-20" vertex="1">
          <mxGeometry y="26" width="130" height="30" as="geometry" />
        </mxCell>
        <mxCell id="pjNiDbdo3uzKNzegbZ7r-42" value="Nombre_categoria" style="text;strokeColor=none;fillColor=none;spacingLeft=4;spacingRight=4;overflow=hidden;rotatable=0;points=[[0,0.5],[1,0.5]];portConstraint=eastwest;fontSize=12;whiteSpace=wrap;html=1;" vertex="1" parent="_f90sHQq_CAg2VSXKp69-20">
          <mxGeometry y="56" width="130" height="30" as="geometry" />
        </mxCell>
        <mxCell id="_f90sHQq_CAg2VSXKp69-34" value="TIPO DE CUENTA" style="swimlane;fontStyle=0;childLayout=stackLayout;horizontal=1;startSize=26;horizontalStack=0;resizeParent=1;resizeParentMax=0;resizeLast=0;collapsible=1;marginBottom=0;align=center;fontSize=14;fillColor=default;fillStyle=solid;" parent="1" vertex="1">
          <mxGeometry x="710" y="175" width="200" height="86" as="geometry" />
        </mxCell>
        <mxCell id="_f90sHQq_CAg2VSXKp69-35" value="#ID_tipo_cuenta" style="text;strokeColor=none;fillColor=none;spacingLeft=4;spacingRight=4;overflow=hidden;rotatable=0;points=[[0,0.5],[1,0.5]];portConstraint=eastwest;fontSize=12;whiteSpace=wrap;html=1;" parent="_f90sHQq_CAg2VSXKp69-34" vertex="1">
          <mxGeometry y="26" width="200" height="30" as="geometry" />
        </mxCell>
        <mxCell id="pjNiDbdo3uzKNzegbZ7r-41" value="Tipo (Ahorro/Credito)" style="text;strokeColor=none;fillColor=none;spacingLeft=4;spacingRight=4;overflow=hidden;rotatable=0;points=[[0,0.5],[1,0.5]];portConstraint=eastwest;fontSize=12;whiteSpace=wrap;html=1;" vertex="1" parent="_f90sHQq_CAg2VSXKp69-34">
          <mxGeometry y="56" width="200" height="30" as="geometry" />
        </mxCell>
        <mxCell id="pjNiDbdo3uzKNzegbZ7r-1" value="" style="endArrow=none;html=1;rounded=0;entryX=-0.002;entryY=0.807;entryDx=0;entryDy=0;entryPerimeter=0;" edge="1" parent="1" target="_f90sHQq_CAg2VSXKp69-6">
          <mxGeometry width="50" height="50" relative="1" as="geometry">
            <mxPoint x="340" y="210" as="sourcePoint" />
            <mxPoint x="230" y="140" as="targetPoint" />
          </mxGeometry>
        </mxCell>
        <mxCell id="pjNiDbdo3uzKNzegbZ7r-4" value="" style="endArrow=none;dashed=1;html=1;rounded=0;exitX=1.003;exitY=0.793;exitDx=0;exitDy=0;exitPerimeter=0;" edge="1" parent="1" source="_f90sHQq_CAg2VSXKp69-3">
          <mxGeometry width="50" height="50" relative="1" as="geometry">
            <mxPoint x="310" y="250" as="sourcePoint" />
            <mxPoint x="340" y="210" as="targetPoint" />
          </mxGeometry>
        </mxCell>
        <mxCell id="pjNiDbdo3uzKNzegbZ7r-5" value="" style="endArrow=none;dashed=1;html=1;rounded=0;entryX=0.5;entryY=0.967;entryDx=0;entryDy=0;entryPerimeter=0;" edge="1" parent="1" target="pjNiDbdo3uzKNzegbZ7r-31">
          <mxGeometry width="50" height="50" relative="1" as="geometry">
            <mxPoint x="190" y="320" as="sourcePoint" />
            <mxPoint x="190" y="280" as="targetPoint" />
          </mxGeometry>
        </mxCell>
        <mxCell id="pjNiDbdo3uzKNzegbZ7r-6" value="" style="endArrow=none;html=1;rounded=0;entryX=0.5;entryY=0;entryDx=0;entryDy=0;" edge="1" parent="1" target="_f90sHQq_CAg2VSXKp69-9">
          <mxGeometry width="50" height="50" relative="1" as="geometry">
            <mxPoint x="190" y="320" as="sourcePoint" />
            <mxPoint x="290" y="270" as="targetPoint" />
          </mxGeometry>
        </mxCell>
        <mxCell id="pjNiDbdo3uzKNzegbZ7r-7" value="" style="endArrow=none;html=1;rounded=0;exitX=0.388;exitY=-0.002;exitDx=0;exitDy=0;exitPerimeter=0;entryX=0.595;entryY=0.002;entryDx=0;entryDy=0;entryPerimeter=0;" edge="1" parent="1" source="_f90sHQq_CAg2VSXKp69-9" target="_f90sHQq_CAg2VSXKp69-9">
          <mxGeometry width="50" height="50" relative="1" as="geometry">
            <mxPoint x="240" y="320" as="sourcePoint" />
            <mxPoint x="290" y="270" as="targetPoint" />
            <Array as="points">
              <mxPoint x="190" y="350" />
            </Array>
          </mxGeometry>
        </mxCell>
        <mxCell id="pjNiDbdo3uzKNzegbZ7r-8" value="" style="endArrow=none;html=1;rounded=0;entryX=-0.004;entryY=0.28;entryDx=0;entryDy=0;exitX=1.001;exitY=0.81;exitDx=0;exitDy=0;exitPerimeter=0;entryPerimeter=0;" edge="1" parent="1" source="_f90sHQq_CAg2VSXKp69-6" target="_f90sHQq_CAg2VSXKp69-35">
          <mxGeometry width="50" height="50" relative="1" as="geometry">
            <mxPoint x="590" y="230" as="sourcePoint" />
            <mxPoint x="640" y="180" as="targetPoint" />
          </mxGeometry>
        </mxCell>
        <mxCell id="pjNiDbdo3uzKNzegbZ7r-10" value="SUBCATEGORIA" style="swimlane;fontStyle=0;childLayout=stackLayout;horizontal=1;startSize=26;horizontalStack=0;resizeParent=1;resizeParentMax=0;resizeLast=0;collapsible=1;marginBottom=0;align=center;fontSize=14;fillColor=default;fillStyle=solid;" vertex="1" parent="1">
          <mxGeometry x="920" y="408" width="160" height="94" as="geometry" />
        </mxCell>
        <mxCell id="pjNiDbdo3uzKNzegbZ7r-11" value="#ID_subcategoria" style="text;strokeColor=none;fillColor=none;spacingLeft=4;spacingRight=4;overflow=hidden;rotatable=0;points=[[0,0.5],[1,0.5]];portConstraint=eastwest;fontSize=12;whiteSpace=wrap;html=1;" vertex="1" parent="pjNiDbdo3uzKNzegbZ7r-10">
          <mxGeometry y="26" width="160" height="34" as="geometry" />
        </mxCell>
        <mxCell id="pjNiDbdo3uzKNzegbZ7r-43" value="Nombre_subcategoria" style="text;strokeColor=none;fillColor=none;spacingLeft=4;spacingRight=4;overflow=hidden;rotatable=0;points=[[0,0.5],[1,0.5]];portConstraint=eastwest;fontSize=12;whiteSpace=wrap;html=1;" vertex="1" parent="pjNiDbdo3uzKNzegbZ7r-10">
          <mxGeometry y="60" width="160" height="34" as="geometry" />
        </mxCell>
        <mxCell id="pjNiDbdo3uzKNzegbZ7r-16" value="" style="endArrow=none;html=1;rounded=0;" edge="1" parent="1">
          <mxGeometry width="50" height="50" relative="1" as="geometry">
            <mxPoint x="580" y="530" as="sourcePoint" />
            <mxPoint x="610" y="480" as="targetPoint" />
            <Array as="points">
              <mxPoint x="610" y="530" />
            </Array>
          </mxGeometry>
        </mxCell>
        <mxCell id="pjNiDbdo3uzKNzegbZ7r-18" value="" style="endArrow=none;dashed=1;html=1;rounded=0;entryX=-0.008;entryY=0.112;entryDx=0;entryDy=0;entryPerimeter=0;" edge="1" parent="1" target="_f90sHQq_CAg2VSXKp69-21">
          <mxGeometry width="50" height="50" relative="1" as="geometry">
            <mxPoint x="610" y="480" as="sourcePoint" />
            <mxPoint x="640" y="466" as="targetPoint" />
          </mxGeometry>
        </mxCell>
        <mxCell id="pjNiDbdo3uzKNzegbZ7r-20" value="" style="endArrow=none;html=1;rounded=0;exitX=0.997;exitY=0.193;exitDx=0;exitDy=0;exitPerimeter=0;" edge="1" parent="1" source="_f90sHQq_CAg2VSXKp69-21">
          <mxGeometry width="50" height="50" relative="1" as="geometry">
            <mxPoint x="840" y="470" as="sourcePoint" />
            <mxPoint x="840" y="440" as="targetPoint" />
            <Array as="points">
              <mxPoint x="840" y="482" />
            </Array>
          </mxGeometry>
        </mxCell>
        <mxCell id="pjNiDbdo3uzKNzegbZ7r-19" value="" style="endArrow=none;html=1;rounded=0;exitX=1.002;exitY=0.606;exitDx=0;exitDy=0;exitPerimeter=0;entryX=1;entryY=0.354;entryDx=0;entryDy=0;entryPerimeter=0;" edge="1" parent="1" source="_f90sHQq_CAg2VSXKp69-21">
          <mxGeometry width="50" height="50" relative="1" as="geometry">
            <mxPoint x="810.39" y="495.99999999999994" as="sourcePoint" />
            <mxPoint x="810" y="472.03400000000005" as="targetPoint" />
            <Array as="points">
              <mxPoint x="830" y="482.21" />
            </Array>
          </mxGeometry>
        </mxCell>
        <mxCell id="pjNiDbdo3uzKNzegbZ7r-21" value="" style="endArrow=none;dashed=1;html=1;rounded=0;entryX=0.002;entryY=0.186;entryDx=0;entryDy=0;entryPerimeter=0;" edge="1" parent="1" target="pjNiDbdo3uzKNzegbZ7r-11">
          <mxGeometry width="50" height="50" relative="1" as="geometry">
            <mxPoint x="840" y="440" as="sourcePoint" />
            <mxPoint x="940" y="390" as="targetPoint" />
          </mxGeometry>
        </mxCell>
        <mxCell id="pjNiDbdo3uzKNzegbZ7r-22" value="" style="endArrow=none;html=1;rounded=0;entryX=0.496;entryY=0.988;entryDx=0;entryDy=0;entryPerimeter=0;exitX=0.581;exitY=-0.002;exitDx=0;exitDy=0;exitPerimeter=0;" edge="1" parent="1" target="pjNiDbdo3uzKNzegbZ7r-29">
          <mxGeometry width="50" height="50" relative="1" as="geometry">
            <mxPoint x="490.38000000000005" y="449.99800000000005" as="sourcePoint" />
            <mxPoint x="489.61999999999995" y="247.93999999999997" as="targetPoint" />
          </mxGeometry>
        </mxCell>
        <mxCell id="pjNiDbdo3uzKNzegbZ7r-23" value="" style="endArrow=none;html=1;rounded=0;exitX=0.467;exitY=0.011;exitDx=0;exitDy=0;exitPerimeter=0;entryX=0.674;entryY=0.001;entryDx=0;entryDy=0;entryPerimeter=0;" edge="1" parent="1" target="_f90sHQq_CAg2VSXKp69-16">
          <mxGeometry width="50" height="50" relative="1" as="geometry">
            <mxPoint x="468" y="449.996" as="sourcePoint" />
            <mxPoint x="512" y="448.6039999999999" as="targetPoint" />
            <Array as="points">
              <mxPoint x="490" y="420" />
            </Array>
          </mxGeometry>
        </mxCell>
        <mxCell id="pjNiDbdo3uzKNzegbZ7r-24" value="" style="endArrow=none;html=1;rounded=0;entryX=0.502;entryY=1.008;entryDx=0;entryDy=0;entryPerimeter=0;" edge="1" parent="1" target="pjNiDbdo3uzKNzegbZ7r-30">
          <mxGeometry width="50" height="50" relative="1" as="geometry">
            <mxPoint x="260" y="710" as="sourcePoint" />
            <mxPoint x="480" y="570" as="targetPoint" />
            <Array as="points">
              <mxPoint x="290" y="710" />
              <mxPoint x="480" y="710" />
            </Array>
          </mxGeometry>
        </mxCell>
        <mxCell id="pjNiDbdo3uzKNzegbZ7r-26" value="" style="endArrow=none;dashed=1;html=1;rounded=0;exitX=0.46;exitY=1.02;exitDx=0;exitDy=0;exitPerimeter=0;" edge="1" parent="1" source="pjNiDbdo3uzKNzegbZ7r-34">
          <mxGeometry width="50" height="50" relative="1" as="geometry">
            <mxPoint x="183" y="530" as="sourcePoint" />
            <mxPoint x="260" y="710" as="targetPoint" />
            <Array as="points">
              <mxPoint x="183" y="710" />
            </Array>
          </mxGeometry>
        </mxCell>
        <mxCell id="pjNiDbdo3uzKNzegbZ7r-27" value="" style="endArrow=none;html=1;rounded=0;exitX=0.381;exitY=0.967;exitDx=0;exitDy=0;exitPerimeter=0;entryX=0.628;entryY=0.997;entryDx=0;entryDy=0;entryPerimeter=0;" edge="1" parent="1" target="pjNiDbdo3uzKNzegbZ7r-30">
          <mxGeometry width="50" height="50" relative="1" as="geometry">
            <mxPoint x="455.99999999999994" y="596" as="sourcePoint" />
            <mxPoint x="504.00000000000006" y="597.71" as="targetPoint" />
            <Array as="points">
              <mxPoint x="479.8" y="630.99" />
            </Array>
          </mxGeometry>
        </mxCell>
        <mxCell id="pjNiDbdo3uzKNzegbZ7r-35" value="ESTADO" style="swimlane;fontStyle=0;childLayout=stackLayout;horizontal=1;startSize=26;horizontalStack=0;resizeParent=1;resizeParentMax=0;resizeLast=0;collapsible=1;marginBottom=0;align=center;fontSize=14;fillColor=default;fillStyle=solid;" vertex="1" parent="1">
          <mxGeometry x="395" width="190" height="86" as="geometry" />
        </mxCell>
        <mxCell id="pjNiDbdo3uzKNzegbZ7r-36" value="#ID_estado" style="text;strokeColor=none;fillColor=none;spacingLeft=4;spacingRight=4;overflow=hidden;rotatable=0;points=[[0,0.5],[1,0.5]];portConstraint=eastwest;fontSize=12;whiteSpace=wrap;html=1;" vertex="1" parent="pjNiDbdo3uzKNzegbZ7r-35">
          <mxGeometry y="26" width="190" height="30" as="geometry" />
        </mxCell>
        <mxCell id="pjNiDbdo3uzKNzegbZ7r-37" value="Nombre_estado (activo/inactivo)" style="text;strokeColor=none;fillColor=none;spacingLeft=4;spacingRight=4;overflow=hidden;rotatable=0;points=[[0,0.5],[1,0.5]];portConstraint=eastwest;fontSize=12;whiteSpace=wrap;html=1;" vertex="1" parent="pjNiDbdo3uzKNzegbZ7r-35">
          <mxGeometry y="56" width="190" height="30" as="geometry" />
        </mxCell>
        <mxCell id="pjNiDbdo3uzKNzegbZ7r-38" value="" style="endArrow=none;html=1;rounded=0;exitX=0.5;exitY=0;exitDx=0;exitDy=0;entryX=0.499;entryY=1.005;entryDx=0;entryDy=0;entryPerimeter=0;" edge="1" parent="1" source="_f90sHQq_CAg2VSXKp69-5" target="pjNiDbdo3uzKNzegbZ7r-37">
          <mxGeometry width="50" height="50" relative="1" as="geometry">
            <mxPoint x="520" y="120" as="sourcePoint" />
            <mxPoint x="570" y="70" as="targetPoint" />
          </mxGeometry>
        </mxCell>
        <mxCell id="pjNiDbdo3uzKNzegbZ7r-40" value="" style="endArrow=none;html=1;rounded=0;entryX=0.634;entryY=-0.004;entryDx=0;entryDy=0;entryPerimeter=0;" edge="1" parent="1" target="_f90sHQq_CAg2VSXKp69-5">
          <mxGeometry width="50" height="50" relative="1" as="geometry">
            <mxPoint x="470" y="160" as="sourcePoint" />
            <mxPoint x="520" y="110" as="targetPoint" />
            <Array as="points">
              <mxPoint x="490" y="130" />
            </Array>
          </mxGeometry>
        </mxCell>
      </root>
    </mxGraphModel>
  </diagram>
</mxfile>
